<svg width="23" height="24" viewBox="0 0 23 24" fill="none" xmlns="http://www.w3.org/2000/svg">
<g clip-path="url(#clip0_42_11000)">
<path fill-rule="evenodd" clip-rule="evenodd" d="M22.9776 7.26206C22.9237 6.03998 22.7261 5.19982 22.443 4.4718C22.151 3.69903 21.7017 3.00717 21.113 2.43202C20.5379 1.84792 19.8414 1.39405 19.0776 1.10656C18.3454 0.823466 17.5096 0.625841 16.2875 0.571959C15.0563 0.513514 14.6655 0.5 11.5428 0.5C8.42009 0.5 8.02923 0.513514 6.80259 0.567396C5.58051 0.621278 4.74034 0.819078 4.0125 1.102C3.23955 1.39405 2.54769 1.84336 1.97255 2.43202C1.38845 3.00717 0.934753 3.70359 0.647091 4.46741C0.363993 5.19982 0.166368 6.03542 0.112487 7.2575C0.0540416 8.4887 0.0405273 8.87957 0.0405273 12.0022C0.0405273 15.1249 0.0540416 15.5158 0.107923 16.7424C0.161805 17.9645 0.359605 18.8047 0.642703 19.5327C0.934753 20.3055 1.38845 20.9973 1.97255 21.5725C2.54769 22.1566 3.24412 22.6104 4.00794 22.8979C4.74034 23.181 5.57595 23.3787 6.7982 23.4325C8.02467 23.4866 8.41571 23.4999 11.5384 23.4999C14.6611 23.4999 15.0519 23.4866 16.2786 23.4325C17.5006 23.3787 18.3408 23.181 19.0687 22.8979C20.6144 22.3003 21.8365 21.0782 22.4341 19.5327C22.717 18.8003 22.9148 17.9645 22.9687 16.7424C23.0226 15.5158 23.0361 15.1249 23.0361 12.0022C23.0361 8.87957 23.0315 8.4887 22.9776 7.26206ZM20.9064 16.6526C20.8569 17.7758 20.6683 18.3824 20.511 18.7868C20.1245 19.7888 19.3293 20.584 18.3273 20.9705C17.9229 21.1277 17.312 21.3164 16.1931 21.3657C14.98 21.4198 14.6161 21.4331 11.5473 21.4331C8.47854 21.4331 8.11014 21.4198 6.9014 21.3657C5.77814 21.3164 5.17157 21.1277 4.7672 20.9705C4.26857 20.7862 3.8147 20.4941 3.44631 20.1122C3.0644 19.7393 2.77235 19.29 2.58806 18.7913C2.4308 18.387 2.24213 17.7758 2.19281 16.6571C2.13875 15.444 2.12541 15.08 2.12541 12.0112C2.12541 8.9424 2.13875 8.574 2.19281 7.36544C2.24213 6.24217 2.4308 5.63561 2.58806 5.23123C2.77235 4.73243 3.0644 4.27874 3.45087 3.91017C3.82365 3.52826 4.27296 3.23621 4.77176 3.0521C5.17614 2.89484 5.78726 2.70617 6.90597 2.65667C8.11909 2.60279 8.4831 2.58928 11.5517 2.58928C14.6251 2.58928 14.9889 2.60279 16.1977 2.65667C17.3209 2.70617 17.9275 2.89484 18.3319 3.0521C18.8305 3.23621 19.2844 3.52826 19.6528 3.91017C20.0347 4.28313 20.3267 4.73243 20.511 5.23123C20.6683 5.63561 20.8569 6.24656 20.9064 7.36544C20.9603 8.57857 20.9738 8.9424 20.9738 12.0112C20.9738 15.08 20.9603 15.4394 20.9064 16.6526ZM11.5428 6.09375C8.2809 6.09375 5.63438 8.7401 5.63438 12.0021C5.63438 15.2642 8.2809 17.9105 11.5428 17.9105C14.8048 17.9105 17.4511 15.2642 17.4511 12.0021C17.4511 8.7401 14.8048 6.09375 11.5428 6.09375ZM11.5428 15.8348C9.42664 15.8348 7.71014 14.1184 7.71014 12.0021C7.71014 9.88583 9.42664 8.16951 11.5428 8.16951C13.6591 8.16951 15.3754 9.88583 15.3754 12.0021C15.3754 14.1184 13.6591 15.8348 11.5428 15.8348ZM17.6848 7.23963C18.4466 7.23963 19.0643 6.62201 19.0643 5.86029C19.0643 5.0984 18.4466 4.48096 17.6848 4.48096C16.923 4.48096 16.3054 5.0984 16.3054 5.86029C16.3054 6.62201 16.923 7.23963 17.6848 7.23963Z" fill="white"/>
<path fill-rule="evenodd" clip-rule="evenodd" d="M22.9776 7.26206C22.9237 6.03998 22.7261 5.19982 22.443 4.4718C22.151 3.69903 21.7017 3.00717 21.113 2.43202C20.5379 1.84792 19.8414 1.39405 19.0776 1.10656C18.3454 0.823466 17.5096 0.625841 16.2875 0.571959C15.0563 0.513514 14.6655 0.5 11.5428 0.5C8.42009 0.5 8.02923 0.513514 6.80259 0.567396C5.58051 0.621278 4.74034 0.819078 4.0125 1.102C3.23955 1.39405 2.54769 1.84336 1.97255 2.43202C1.38845 3.00717 0.934753 3.70359 0.647091 4.46741C0.363993 5.19982 0.166368 6.03542 0.112487 7.2575C0.0540416 8.4887 0.0405273 8.87957 0.0405273 12.0022C0.0405273 15.1249 0.0540416 15.5158 0.107923 16.7424C0.161805 17.9645 0.359605 18.8047 0.642703 19.5327C0.934753 20.3055 1.38845 20.9973 1.97255 21.5725C2.54769 22.1566 3.24412 22.6104 4.00794 22.8979C4.74034 23.181 5.57595 23.3787 6.7982 23.4325C8.02467 23.4866 8.41571 23.4999 11.5384 23.4999C14.6611 23.4999 15.0519 23.4866 16.2786 23.4325C17.5006 23.3787 18.3408 23.181 19.0687 22.8979C20.6144 22.3003 21.8365 21.0782 22.4341 19.5327C22.717 18.8003 22.9148 17.9645 22.9687 16.7424C23.0226 15.5158 23.0361 15.1249 23.0361 12.0022C23.0361 8.87957 23.0315 8.4887 22.9776 7.26206ZM20.9064 16.6526C20.8569 17.7758 20.6683 18.3824 20.511 18.7868C20.1245 19.7888 19.3293 20.584 18.3273 20.9705C17.9229 21.1277 17.312 21.3164 16.1931 21.3657C14.98 21.4198 14.6161 21.4331 11.5473 21.4331C8.47854 21.4331 8.11014 21.4198 6.9014 21.3657C5.77814 21.3164 5.17157 21.1277 4.7672 20.9705C4.26857 20.7862 3.8147 20.4941 3.44631 20.1122C3.0644 19.7393 2.77235 19.29 2.58806 18.7913C2.4308 18.387 2.24213 17.7758 2.19281 16.6571C2.13875 15.444 2.12541 15.08 2.12541 12.0112C2.12541 8.9424 2.13875 8.574 2.19281 7.36544C2.24213 6.24217 2.4308 5.63561 2.58806 5.23123C2.77235 4.73243 3.0644 4.27874 3.45087 3.91017C3.82365 3.52826 4.27296 3.23621 4.77176 3.0521C5.17614 2.89484 5.78726 2.70617 6.90597 2.65667C8.11909 2.60279 8.4831 2.58928 11.5517 2.58928C14.6251 2.58928 14.9889 2.60279 16.1977 2.65667C17.3209 2.70617 17.9275 2.89484 18.3319 3.0521C18.8305 3.23621 19.2844 3.52826 19.6528 3.91017C20.0347 4.28313 20.3267 4.73243 20.511 5.23123C20.6683 5.63561 20.8569 6.24656 20.9064 7.36544C20.9603 8.57857 20.9738 8.9424 20.9738 12.0112C20.9738 15.08 20.9603 15.4394 20.9064 16.6526ZM11.5428 6.09375C8.2809 6.09375 5.63438 8.7401 5.63438 12.0021C5.63438 15.2642 8.2809 17.9105 11.5428 17.9105C14.8048 17.9105 17.4511 15.2642 17.4511 12.0021C17.4511 8.7401 14.8048 6.09375 11.5428 6.09375ZM11.5428 15.8348C9.42664 15.8348 7.71014 14.1184 7.71014 12.0021C7.71014 9.88583 9.42664 8.16951 11.5428 8.16951C13.6591 8.16951 15.3754 9.88583 15.3754 12.0021C15.3754 14.1184 13.6591 15.8348 11.5428 15.8348ZM17.6848 7.23963C18.4466 7.23963 19.0643 6.62201 19.0643 5.86029C19.0643 5.0984 18.4466 4.48096 17.6848 4.48096C16.923 4.48096 16.3054 5.0984 16.3054 5.86029C16.3054 6.62201 16.923 7.23963 17.6848 7.23963Z" fill="#101828"/>
</g>
<defs>
<clipPath id="clip0_42_11000">
<rect width="23" height="23" fill="white" transform="translate(0 0.5)"/>
</clipPath>
</defs>
</svg>
