<svg width="194" height="24" viewBox="0 0 194 24" fill="none" xmlns="http://www.w3.org/2000/svg">
<path d="M0 18.696H7.896V18.384C7.008 18.384 6.264 18.216 6.264 16.752V10.272H8.352V10.296C8.352 15.456 11.904 19.008 17.04 19.008C22.176 19.008 25.704 15.432 25.704 10.296C25.704 5.16 22.152 1.584 17.016 1.584C12.048 1.584 8.568 4.92 8.352 9.816H6.264V3.84C6.264 2.376 7.008 2.208 7.896 2.208V1.896H0V2.208C0.912 2.208 1.632 2.376 1.632 3.84V16.752C1.632 18.216 0.912 18.384 0 18.384V18.696ZM17.016 1.92C19.488 1.92 20.568 4.032 20.568 10.296C20.568 16.56 19.488 18.672 17.04 18.672C14.568 18.672 13.488 16.56 13.488 10.296C13.488 4.032 14.568 1.92 17.016 1.92Z" fill="#101828"/>
<path d="M29.6318 15.312C29.4878 15.864 29.2957 16.08 29.0317 16.104C28.5278 16.128 28.2638 15.384 27.3038 15.384C26.4158 15.384 25.7677 16.104 25.7677 17.16C25.7677 18.216 26.4398 18.936 27.4718 18.936C29.3918 18.936 30.1838 16.752 30.4237 10.944L30.5198 8.52C30.5678 7.728 30.7598 7.464 31.4317 7.464H32.9678C33.4958 7.464 33.7118 7.656 33.7118 8.232V17.28C33.7118 18.144 33.2317 18.456 32.3197 18.456V18.696H39.0158V18.456C38.2477 18.456 37.7917 18.12 37.7917 17.28V8.544C37.7917 7.704 38.2477 7.368 39.0158 7.368V7.128H28.3598V7.368C29.7518 7.44 30.1118 8.088 30.0638 10.896C30.0398 12.168 29.8958 14.28 29.6318 15.312Z" fill="#101828"/>
<path d="M42.726 5.328C44.046 5.328 44.982 4.416 44.982 3.168C44.982 1.944 44.046 1.032 42.726 1.032C41.406 1.032 40.47 1.944 40.47 3.168C40.47 4.416 41.406 5.328 42.726 5.328ZM39.486 18.696H45.99V18.456C45.222 18.456 44.79 18.12 44.79 17.28V7.128H39.486V7.368C40.374 7.368 40.71 7.704 40.71 8.64V17.28C40.71 18.12 40.278 18.456 39.486 18.456V18.696Z" fill="#101828"/>
<path d="M60.1024 18.696V18.456C59.3344 18.456 58.8784 18.12 58.8784 17.28V8.544C58.8784 7.704 59.3344 7.368 60.1024 7.368V7.128H51.7504C49.3264 7.128 47.7904 8.112 47.7904 9.984C47.7904 12.288 50.0704 12.912 53.3824 12.96C50.2624 13.08 49.0864 13.512 48.5584 15.144L47.9104 16.944C47.6224 17.736 47.3584 17.904 46.9744 17.904C46.7344 17.904 46.5424 17.832 46.3984 17.616L46.2304 17.736C46.6144 18.528 47.6224 19.008 48.8704 19.008C50.2864 19.008 51.3664 18.504 51.8224 16.776L52.4944 14.376C52.7344 13.584 53.0464 13.128 54.1024 13.056C54.4384 13.008 54.6784 13.008 54.9424 12.984V17.424C54.9424 18.24 54.4864 18.456 53.7664 18.456V18.696H60.1024ZM51.7744 10.056C51.7744 8.28 52.2544 7.392 53.4304 7.392H53.9824C54.6784 7.392 54.9424 7.752 54.9424 8.448V12.696C54.6064 12.744 54.3184 12.768 53.9584 12.768C52.3984 12.768 51.7744 12 51.7744 10.056Z" fill="#101828"/>
<path d="M65.3203 18.696H74.7283C78.6403 18.696 81.0643 17.208 81.0643 14.16C81.0643 11.544 79.3363 10.08 75.4003 9.84C78.9763 9.456 80.4403 8.016 80.4403 5.808C80.4403 3.264 78.4963 1.896 74.9443 1.896H65.3203V2.208C66.2323 2.208 66.9523 2.376 66.9523 3.84V16.752C66.9523 18.216 66.2323 18.384 65.3203 18.384V18.696ZM71.5843 3.48C71.5843 2.592 71.9203 2.256 72.7603 2.256H73.8403C75.2803 2.256 76.0723 3.576 76.0723 6.024C76.0723 8.496 75.3283 9.72 73.4803 9.72H71.5843V3.48ZM76.4083 14.4C76.4083 16.968 75.6163 18.336 73.8643 18.336H72.8803C71.9443 18.336 71.5843 17.952 71.5843 16.992V10.104H73.4803C75.4963 10.104 76.4083 11.448 76.4083 14.4Z" fill="#101828"/>
<path d="M88.7228 19.008C92.6348 19.008 95.1548 16.536 95.1548 12.912C95.1548 9.264 92.6348 6.816 88.7228 6.816C84.8108 6.816 82.2907 9.264 82.2907 12.912C82.2907 16.536 84.8108 19.008 88.7228 19.008ZM88.7228 18.744C87.2828 18.744 86.5387 17.4 86.5387 12.936C86.5387 8.472 87.2828 7.08 88.7228 7.08C90.1628 7.08 90.9068 8.472 90.9068 12.936C90.9068 17.4 90.1628 18.744 88.7228 18.744Z" fill="#101828"/>
<path d="M95.9704 23.736H102.954V23.496C101.922 23.496 101.274 23.16 101.274 22.152V16.176C101.802 18.216 103.002 19.008 104.85 19.008C107.634 19.008 109.866 16.536 109.866 12.888C109.866 9.264 107.874 6.816 105.138 6.816C103.002 6.816 101.826 8.088 101.274 9.96V7.128H95.9704V7.368C96.8584 7.368 97.1944 7.704 97.1944 8.64V22.32C97.1944 23.16 96.7624 23.496 95.9704 23.496V23.736ZM103.434 8.232C104.874 8.232 105.522 9.768 105.522 12.912C105.522 16.464 104.874 18.072 103.458 18.072C102.162 18.072 101.274 16.56 101.274 12.912C101.274 9.6 102.138 8.232 103.434 8.232Z" fill="#101828"/>
<path d="M117.457 19.008C121.369 19.008 123.889 16.536 123.889 12.912C123.889 9.264 121.369 6.816 117.457 6.816C113.545 6.816 111.025 9.264 111.025 12.912C111.025 16.536 113.545 19.008 117.457 19.008ZM117.457 18.744C116.017 18.744 115.273 17.4 115.273 12.936C115.273 8.472 116.017 7.08 117.457 7.08C118.897 7.08 119.641 8.472 119.641 12.936C119.641 17.4 118.897 18.744 117.457 18.744Z" fill="#101828"/>
<path d="M131.593 19.008C135.385 19.008 138.025 16.584 138.025 13.152C138.025 9.48 135.721 7.32 131.785 7.32C129.145 7.32 127.081 8.376 125.953 10.728C125.689 10.2 125.593 9.648 125.593 9.12C125.593 7.2 126.769 5.856 130.561 5.52L133.201 5.304C136.465 5.016 137.881 3.816 137.281 0H137.089C137.041 1.008 136.393 1.344 134.569 1.584L131.833 1.92C126.721 2.568 125.089 6.024 125.089 11.424C125.089 16.128 127.249 19.008 131.593 19.008ZM131.593 18.744C130.201 18.744 129.457 17.304 129.457 13.272C129.457 9.408 130.129 7.584 131.617 7.584C133.033 7.584 133.753 9.408 133.753 13.272C133.753 17.304 133.057 18.744 131.593 18.744Z" fill="#101828"/>
<path d="M145.918 5.976C148.414 5.976 149.83 4.344 149.83 2.712C149.83 1.68 149.206 0.912 148.15 0.912C147.286 0.912 146.71 1.488 146.71 2.328C146.71 3.192 147.286 3.744 148.15 3.744C148.486 3.744 148.798 3.648 149.158 3.504C149.35 3.432 149.518 3.504 149.446 3.744C149.35 4.104 148.486 4.56 145.918 4.56C143.326 4.56 142.462 4.128 142.39 3.744C142.342 3.504 142.486 3.432 142.678 3.504C143.014 3.624 143.326 3.744 143.71 3.744C144.526 3.744 145.15 3.192 145.15 2.328C145.15 1.488 144.526 0.912 143.686 0.912C142.63 0.912 142.006 1.68 142.006 2.712C142.006 4.368 143.398 5.976 145.918 5.976ZM138.91 18.696H145.246V18.456C144.622 18.456 144.286 18.24 144.214 17.592L147.766 9.216V17.424C147.766 18.192 147.406 18.456 146.734 18.456V18.696H153.07V18.456C152.302 18.456 151.846 18.12 151.846 17.28V8.544C151.846 7.704 152.302 7.368 153.07 7.368V7.128H146.734V7.368C147.358 7.368 147.718 7.608 147.766 8.256L144.214 16.632V8.4C144.214 7.656 144.574 7.368 145.246 7.368V7.128H138.91V7.368C139.678 7.368 140.134 7.704 140.134 8.544V17.28C140.134 18.12 139.678 18.456 138.91 18.456V18.696Z" fill="#101828"/>
<path d="M160.395 19.008C164.307 19.008 166.827 16.536 166.827 12.912C166.827 9.264 164.307 6.816 160.395 6.816C156.483 6.816 153.963 9.264 153.963 12.912C153.963 16.536 156.483 19.008 160.395 19.008ZM160.395 18.744C158.955 18.744 158.211 17.4 158.211 12.936C158.211 8.472 158.955 7.08 160.395 7.08C161.835 7.08 162.579 8.472 162.579 12.936C162.579 17.4 161.835 18.744 160.395 18.744Z" fill="#101828"/>
<path d="M167.714 18.696H175.874C178.322 18.696 180.122 17.592 180.122 15.576C180.122 13.728 178.586 12.744 175.562 12.624C178.298 12.408 179.522 11.472 179.522 9.864C179.522 8.136 178.13 7.128 175.682 7.128H167.714V7.368C168.482 7.368 168.938 7.656 168.938 8.544V17.28C168.938 18.192 168.482 18.456 167.714 18.456V18.696ZM172.85 8.376C172.85 7.68 173.066 7.392 173.666 7.392H174.338C175.346 7.392 175.85 8.232 175.85 9.96C175.85 11.472 175.49 12.504 174.242 12.504H172.85V8.376ZM176.138 15.72C176.138 17.496 175.634 18.408 174.482 18.408H173.786C173.138 18.408 172.85 18.12 172.85 17.28V12.864H174.146C175.658 12.864 176.138 13.944 176.138 15.72Z" fill="#101828"/>
<path d="M188.255 9.624C188.279 10.656 187.847 11.352 186.743 12C186.143 12.384 185.495 12.696 184.703 12.984C182.135 13.944 181.031 14.664 181.031 16.368C181.031 18.048 182.159 19.008 184.103 19.008C185.663 19.008 187.511 18.384 188.327 16.032V17.04C188.327 18.36 189.335 19.008 190.679 19.008C191.807 19.008 192.695 18.552 193.631 17.64L193.511 17.472C193.319 17.616 193.127 17.664 192.935 17.664C192.503 17.664 192.263 17.376 192.263 16.68V10.584C192.263 7.872 190.079 6.816 187.151 6.816C183.599 6.816 181.271 8.544 181.271 10.488C181.271 11.568 181.991 12.312 183.119 12.312C184.271 12.312 185.087 11.568 185.087 10.512C185.087 9.24 184.079 8.976 184.079 8.232C184.079 7.608 184.943 7.176 185.951 7.176C187.007 7.176 188.207 7.896 188.255 9.624ZM188.303 14.088C188.303 16.416 187.391 17.52 186.335 17.52C185.423 17.52 185.015 16.776 185.015 15.288C185.015 13.752 185.687 12.888 187.655 11.784L188.303 11.4V14.088Z" fill="#101828"/>
</svg>
